<svg id="Capa_1" enable-background="new 0 0 512 512" height="512" viewBox="0 0 512 512" width="512" xmlns="http://www.w3.org/2000/svg"><g><path d="m313.69 512h-115.38c-22.758 0-41.207-18.449-41.207-41.207v-105.87c0-30.771 8.221-60.983 23.812-87.512 34.826-59.257 51.006-127.626 46.434-196.207l-2.254-33.816h61.811l-2.286 34.291c-4.552 68.285 11.468 136.367 45.994 195.456l.694 1.188c15.448 26.439 23.59 56.511 23.59 87.133v105.337c-.001 22.758-18.45 41.207-41.208 41.207z" fill="#aee69c"/><path d="m331.308 278.323-.694-1.188c-34.526-59.089-50.547-127.171-45.994-195.456l2.286-34.291h-30.906l-2.286 34.291c-4.552 68.285 11.469 136.366 45.994 195.456l.694 1.188c15.448 26.439 23.59 56.511 23.59 87.132v105.337c0 22.758-18.449 41.207-41.207 41.207h30.905c22.758 0 41.207-18.449 41.207-41.207v-105.336c0-30.622-8.141-60.693-23.589-87.133z" fill="#89daa4"/><path d="m292.056 0h-72.113c-5.69 0-10.302 4.612-10.302 10.302v26.785c0 5.69 4.612 10.302 10.302 10.302h72.113c5.69 0 10.302-4.612 10.302-10.302v-26.785c0-5.69-4.612-10.302-10.302-10.302z" fill="#aee69c"/><path d="m292.056 0h-30.905c5.69 0 10.302 4.612 10.302 10.302v26.785c0 5.69-4.612 10.302-10.302 10.302h30.905c5.69 0 10.302-4.612 10.302-10.302v-26.785c0-5.69-4.612-10.302-10.302-10.302z" fill="#89daa4"/><path d="m267.5 258.681 40.727-27.397c-18.862-47.281-27.022-98.385-23.608-149.604l2.286-34.291h-61.811l2.255 33.816c3.423 51.351-4.79 102.583-23.753 149.961l40.903 27.516c6.954 4.676 16.048 4.676 23.001-.001z" fill="#ffe179"/><path d="m284.252 247.412 23.975-16.128c-.016-.04-.031-.08-.047-.12-18.147-45.8-27.091-96.773-23.561-149.484l2.286-34.291h-30.905l-2.286 34.291c-3.807 57.1 6.782 114.054 30.538 165.732z" fill="#fbd268"/><path d="m313.69 481.095h-115.38c-5.69 0-10.302-4.612-10.302-10.302v-80.142c0-5.69 4.612-10.302 10.302-10.302h115.38c5.69 0 10.302 4.612 10.302 10.302v80.142c0 5.689-4.612 10.302-10.302 10.302z" fill="#eaf6ff"/><path d="m313.69 380.349h-30.905c5.69 0 10.302 4.612 10.302 10.302v80.142c0 5.69-4.612 10.302-10.302 10.302h30.905c5.69 0 10.302-4.612 10.302-10.302v-80.142c0-5.69-4.612-10.302-10.302-10.302z" fill="#d8ecfe"/><circle cx="256" cy="321.269" fill="#ffe179" r="27.3"/><path d="m256 293.969c-5.737 0-11.058 1.773-15.453 4.797 7.154 4.922 11.847 13.163 11.847 22.503s-4.693 17.581-11.847 22.503c4.394 3.023 9.716 4.797 15.453 4.797 15.077 0 27.3-12.223 27.3-27.3s-12.223-27.3-27.3-27.3z" fill="#fbd268"/></g></svg>