<svg id="Capa_1" enable-background="new 0 0 512 512" height="512" viewBox="0 0 512 512" width="512" xmlns="http://www.w3.org/2000/svg"><g><g><path d="m256 120.308c-33.169 0-60.154-26.985-60.154-60.154s26.985-60.154 60.154-60.154 60.154 26.985 60.154 60.154-26.985 60.154-60.154 60.154zm0-90.308c-16.627 0-30.154 13.527-30.154 30.154s13.527 30.154 30.154 30.154 30.154-13.527 30.154-30.154-13.527-30.154-30.154-30.154z" fill="#414952"/></g><path d="m286.154 60.154c0 16.627-13.527 30.154-30.154 30.154v30c33.169 0 60.154-26.985 60.154-60.154s-26.985-60.154-60.154-60.154v30c16.627 0 30.154 13.527 30.154 30.154z" fill="#23272b"/><g><path d="m256 512c-116.261 0-210.846-94.585-210.846-210.846s94.585-210.846 210.846-210.846 210.846 94.585 210.846 210.846-94.585 210.846-210.846 210.846z" fill="#ffbc36"/></g><g><path d="m348.908 101.837h65.652v29.999h-65.652z" fill="#23272b" transform="matrix(.546 -.838 .838 .546 75.541 372.995)"/></g><g><path d="m423.957 120.309c-2.826 0-5.684-.797-8.222-2.465l-48.652-31.961c-6.924-4.548-8.85-13.849-4.302-20.772 4.548-6.924 13.85-8.851 20.772-4.301l48.652 31.961c6.924 4.548 8.85 13.849 4.302 20.772-2.88 4.386-7.668 6.766-12.55 6.766z" fill="#414952"/></g><path d="m466.846 301.154c0-116.261-94.585-210.846-210.846-210.846v421.692c116.261 0 210.846-94.585 210.846-210.846z" fill="#ff9500"/><circle cx="255.232" cy="301.188" fill="#f2eee6" r="181.33"/><path d="m256 119.867v362.641c99.633-.416 180.562-81.591 180.562-181.32s-80.929-180.905-180.562-181.321z" fill="#e8e4dc"/><path d="m327.152 168.005c-6.489-3.511-14.565-1.784-19.049 4.072l-.284.371c-11.382 14.861-24.282 31.705-27.05 66.658-.018.224-.03.385-.383.551-.462.22-.725.036-.912-.094-39.575-27.463-66.955-8.982-79.75 4.474-10.639 11.182-17.015 33.686-8.618 55.061 1.695 4.316 4.433 9.552 8.794 14.852-33.176-5.607-53.396-22.938-61.717-52.87-1.805-6.493-7.716-10.983-14.452-10.983-.009 0-.019 0-.027 0-6.747.012-12.655 4.527-14.439 11.034-3.559 12.982-5.364 26.459-5.364 40.056 0 83.444 67.886 151.33 151.33 151.33 6.456 0 12.973-.414 19.37-1.231 5.889-.752 10.78-4.907 12.476-10.597 1.694-5.69-.126-11.844-4.643-15.696-18.901-16.118-21.116-44.276-6.645-83.761 12.402-.812 33.176-4.65 58.433-18.98 2.953 2.588 7.652 9.975 10.886 15.057 7.154 11.248 15.265 23.996 27.496 31.243 2.34 1.386 4.984 2.095 7.647 2.095 1.549 0 3.104-.24 4.609-.726 4.093-1.322 7.422-4.337 9.14-8.28 8.335-19.12 12.561-39.459 12.561-60.454.001-55.64-30.426-106.672-79.409-133.182z" fill="#96e8ff"/><path d="m327.152 168.005c-6.489-3.511-14.565-1.784-19.049 4.072l-.284.371c-11.382 14.861-24.282 31.705-27.05 66.658-.018.224-.03.385-.383.551-.462.22-.725.036-.912-.094-8.677-6.021-16.764-9.825-24.242-11.966v224.919c6.456 0 12.973-.414 19.37-1.231 5.889-.752 10.78-4.907 12.476-10.597 1.694-5.69-.126-11.844-4.643-15.696-18.901-16.118-21.116-44.276-6.645-83.761 12.402-.812 33.176-4.65 58.433-18.98 2.953 2.588 7.652 9.975 10.886 15.057 7.154 11.248 15.265 23.996 27.496 31.243 2.34 1.386 4.984 2.095 7.647 2.095 1.549 0 3.104-.24 4.609-.726 4.093-1.322 7.422-4.337 9.14-8.28 8.335-19.12 12.561-39.459 12.561-60.454 0-55.639-30.427-106.671-79.41-133.181z" fill="#19cffc"/><path d="m370.421 321.207c-5.26-8.269-10.229-16.079-16.698-21.698-10.142-8.809-22.416-10.16-33.684-3.703-29.746 17.06-51.08 15.635-52.607 15.507-.616-.093-1.225-.133-1.829-.149-24.87-1.699-41.397-9.861-46.572-23.034-4.048-10.305-.351-20.491 2.433-23.417 8.183-8.607 19.444-15.397 40.896-.51 9.205 6.401 20.744 7.362 30.866 2.569 10.052-4.76 16.575-14.219 17.45-25.301 2.068-26.114 16.472-73.469 16.472-73.469-21.954-11.871-46.821-18.145-71.915-18.145-68.005 0-128.029 45.76-145.968 111.279 0 0 16.468 83.478 93.045 83.478 7.42 0 14.562 1.247 21.344 1.247 6.989 0 13.533-.376 19.366-.925-18.62 71.501 31.585 106.35 31.585 106.35 52.448-6.707 98.198-41.054 119.396-89.64-.001 0-18.229-32.028-23.58-40.439z" fill="#63e340"/><g fill="#1ac776"><path d="m370.421 321.207c-5.26-8.269-10.229-16.079-16.698-21.698-10.142-8.809-22.416-10.16-33.684-3.703-29.746 17.06-51.08 15.635-52.607 15.507-.616-.093-1.225-.133-1.829-.149-3.642-.249-7.097-.643-10.37-1.165v120.361c9.405 13.998 19.372 20.927 19.372 20.927 52.448-6.707 98.198-41.054 119.396-89.64-.001-.001-18.229-32.029-23.58-40.44z"/><path d="m255.232 149.857v109.984c2.244 1.179 4.614 2.618 7.127 4.362 9.205 6.401 20.744 7.362 30.866 2.569 10.052-4.76 16.575-14.219 17.45-25.301 2.068-26.114 16.472-73.469 16.472-73.469-21.954-11.87-46.821-18.145-71.915-18.145z"/></g></g></svg>